HIERARCHY
ROOT root
{
	OFFSET	0	13.1	24.9
	CHANNELS 6  Xposition Yposition Zposition Xrotation Yrotation Zrotation
	JOINT spine_1
	{
		OFFSET	0	9.99999	0
		CHANNELS 3  Xrotation Yrotation Zrotation
		JOINT spine_2
		{
			OFFSET	0	112	-10
			CHANNELS 3  Xrotation Yrotation Zrotation
			JOINT spine_3
			{
				OFFSET	0	206.5	19.3
				CHANNELS 3  Xrotation Yrotation Zrotation
				JOINT spine_4
				{
					OFFSET	0	110.4	14.6
					CHANNELS 3  Xrotation Yrotation Zrotation
					JOINT neck_1
					{
						OFFSET	0	71.8	-50.3
						CHANNELS 3  Xrotation Yrotation Zrotation
						JOINT neck_2
						{
							OFFSET	0	86.2	-25.8
							CHANNELS 3  Xrotation Yrotation Zrotation
							JOINT head_ee
							{
								OFFSET	0	179.8	-8.7
								CHANNELS 3  Xrotation Yrotation Zrotation
								End Site
								{
									OFFSET	1	0	0
								}
							}
						}
					}
					JOINT left_clavicle
					{
						OFFSET	-43.2	22.4	-70.8
						CHANNELS 3  Xrotation Yrotation Zrotation
						JOINT left_shoulder
						{
							OFFSET	-93.9	-5.79999	48.7
							CHANNELS 3  Xrotation Yrotation Zrotation
							JOINT left_elbow
							{
								OFFSET	-291.4	-30.8	15.2
								CHANNELS 3  Xrotation Yrotation Zrotation
								JOINT left_lowarm_twist
								{
									OFFSET	-110.7	-3.89999	13.6
									CHANNELS 3  Xrotation Yrotation Zrotation
									JOINT left_hand
									{
										OFFSET	-110.7	-3.89999	13.6
										CHANNELS 3  Xrotation Yrotation Zrotation
										JOINT left_ee
										{
											OFFSET	-80.8	-5.10001	12.1
											CHANNELS 3  Xrotation Yrotation Zrotation
											End Site
											{
												OFFSET	1	0	0
											}
										}
									}
								}
							}
						}
					}
					JOINT right_clavicle
					{
						OFFSET	43.2	22.4	-70.8
						CHANNELS 3  Xrotation Yrotation Zrotation
						JOINT right_shoulder
						{
							OFFSET	93.9	-5.79999	48.7
							CHANNELS 3  Xrotation Yrotation Zrotation
							JOINT right_elbow
							{
								OFFSET	291.4	-30.8	15.2
								CHANNELS 3  Xrotation Yrotation Zrotation
								JOINT right_lowarm_twist
								{
									OFFSET	110.7	-3.89999	13.6
									CHANNELS 3  Xrotation Yrotation Zrotation
									JOINT right_hand
									{
										OFFSET	110.7	-3.89999	13.6
										CHANNELS 3  Xrotation Yrotation Zrotation
										JOINT right_ee
										{
											OFFSET	80.8	-5.10001	12.1
											CHANNELS 3  Xrotation Yrotation Zrotation
											End Site
											{
												OFFSET	1	0	0
											}
										}
									}
								}
							}
						}
					}
				}
			}
		}
	}
	JOINT left_hip
	{
		OFFSET	-82.8	-127.5	0.300001
		CHANNELS 3  Xrotation Yrotation Zrotation
		JOINT left_knee
		{
			OFFSET	-28.2	-396.7	2.2
			CHANNELS 3  Xrotation Yrotation Zrotation
			JOINT left_ankle
			{
				OFFSET	-11.7	-411.3	35.4
				CHANNELS 3  Xrotation Yrotation Zrotation
				JOINT left_toes
				{
					OFFSET	0	-60	-88.6
					CHANNELS 3  Xrotation Yrotation Zrotation
					JOINT left_foot_ee
					{
						OFFSET	-22.5	-16.5	-42.2
						CHANNELS 3  Xrotation Yrotation Zrotation
						End Site
						{
							OFFSET	1	0	0
						}
					}
				}
			}
		}
	}
	JOINT right_hip
	{
		OFFSET	82.8	-127.5	0.300001
		CHANNELS 3  Xrotation Yrotation Zrotation
		JOINT right_knee
		{
			OFFSET	28.2	-396.7	2.2
			CHANNELS 3  Xrotation Yrotation Zrotation
			JOINT right_ankle
			{
				OFFSET	11.7	-411.3	35.4
				CHANNELS 3  Xrotation Yrotation Zrotation
				JOINT right_toes
				{
					OFFSET	0	-60	-88.6
					CHANNELS 3  Xrotation Yrotation Zrotation
					JOINT right_foot_ee
					{
						OFFSET	22.5	-16.5	-42.2
						CHANNELS 3  Xrotation Yrotation Zrotation
						End Site
						{
							OFFSET	1	0	0
						}
					}
				}
			}
		}
	}
}
MOTION
Frames: 9
Frame Time: 0.02
2777.32354777 682.53 -1705.07085766 -7.23306533972 58.3916672818 5.01134101491 2.50902 -0.0102852 1.02753 2.5096 -0.0756452 1.02479 2.50812 -0.245946 0.997717 2.50674 -0.0852972 1.02404 -12.8929 9.14095 0.557109 -13.0801 17.0364 3.27902 -0.0 0.0 -0.0 3.9692 13.8498 8.12578 -5.69587 -29.1114 57.5826 1.29926 -32.7643 0.381968 -27.9096 -1.76644 3.06427 0.670345 3.91197 6.072 -0.0 0.0 -0.0 11.0877 14.9871 -22.1276 -20.9697 2.72359 -63.5907 1.01084 26.5983 -0.238942 77.5745 3.56185 8.46717 0.729704 -28.6298 -15.2817 0.0 0.0 0.0 4.2642 9.76448 4.5744 -7.92304 0.24422 1.19046 30.0509 -4.82217 -3.96532 -2.90149 0.0 0.0 -0.0 0.0 -0.0 18.3912 23.0957 -0.964477 -52.1014 1.41006 -7.60002 16.6187 -6.36126 2.30345 -13.2044 0.0 0.0 0.0 0.0 0.0 
2761.49004023 687.504 -1694.45242897 -7.56112221266 59.484068959 5.39639157031 2.43025 -0.00594771 0.976036 2.43078 -0.0680404 0.97368 2.42951 -0.231199 0.948279 2.42827 -0.078542 0.972889 -11.5541 8.667 -0.732937 -11.6932 16.8874 1.70081 -0.0 0.0 -0.0 4.15459 13.4323 8.4263 -3.91337 -29.7002 57.6421 1.32918 -33.3608 0.398294 -28.9499 -1.85978 3.15953 -0.0262235 4.07439 1.53404 -0.0 0.0 -0.0 10.89 14.7017 -21.6932 -21.134 2.39669 -63.9672 0.803675 21.7082 -0.154098 78.8671 3.70856 8.54462 0.788553 -28.7221 -15.6414 0.0 0.0 0.0 1.58647 9.39151 5.38012 -5.49407 0.1869 0.822141 31.1494 -3.76694 -4.06844 -4.05244 0.0 0.0 -0.0 0.0 -0.0 24.0113 28.0229 -5.52946 -47.842 1.03946 -7.059 13.6895 -13.3556 1.92931 -17.803 0.0 0.0 0.0 0.0 0.0 
2748.26397415 690.512 -1680.84518501 -7.35561651168 61.0142990778 5.62679708982 2.46507 -0.0788247 0.882027 2.46549 -0.134788 0.875225 2.46333 -0.279903 0.840146 2.46238 -0.14371 0.873804 -12.0013 8.072 -1.5007 -12.1377 16.2701 0.857862 -0.0 0.0 -0.0 3.99396 12.5973 8.14409 -2.75651 -30.134 57.7702 1.44572 -35.6068 0.464285 -29.8335 -1.94043 3.23911 -0.591909 4.31095 -2.09231 -0.0 0.0 -0.0 10.7359 14.6285 -21.3502 -21.2207 4.6921 -63.9833 0.552334 15.3023 -0.0741998 79.5511 3.78688 8.58426 0.154934 -29.0338 -12.2079 0.0 0.0 0.0 0.096399 11.4005 5.69169 -2.9843 0.111319 0.444415 27.5357 -2.17808 -3.65969 -4.30119 0.0 0.0 -0.0 0.0 -0.0 24.5298 28.4848 -6.19535 -46.7334 0.94972 -6.91386 17.2569 -17.2954 2.4213 -19.5328 0.0 0.0 0.0 0.0 0.0 
2735.10958606 688.773 -1669.61211 -6.05921002663 63.2338317163 4.61135904554 2.18652 -0.0564194 0.657503 2.18676 -0.0981428 0.652581 2.1856 -0.209404 0.625816 2.18507 -0.107942 0.651032 -12.1025 8.26099 -1.64276 -12.2492 16.722 0.792448 -0.0 0.0 -0.0 3.97548 12.3617 8.10828 -1.54317 -30.662 57.7411 1.60226 -38.4366 0.558571 -30.3042 -1.98388 3.281 -0.83807 1.78378 -4.82329 -0.0 0.0 -0.0 10.5412 13.2985 -20.9594 -22.4195 3.36502 -63.3323 0.473223 13.1933 -0.0547261 80.8058 3.93177 8.65454 -0.157229 -28.9236 -10.455 0.0 0.0 0.0 -1.95155 8.55751 5.83796 -0.941802 0.037632 0.139631 27.5217 -2.26421 -3.65895 -8.4293 0.0 0.0 -0.0 0.0 -0.0 26.5175 23.2642 -5.23173 -47.8827 1.04281 -7.06429 13.3041 -16.4853 1.89077 -24.75 0.0 0.0 0.0 0.0 0.0 
2703.69502785 682.673 -1661.74053409 -4.32504844184 61.7670711756 3.39107524662 2.14776 0.125691 0.299915 2.1478 0.106352 0.307305 2.14838 0.0514625 0.32109 2.14825 0.101527 0.308933 -13.6727 7.37118 -1.56586 -13.8301 15.0111 0.816071 -0.0 0.0 -0.0 3.86501 12.1636 7.91751 0.325567 -31.0905 57.841 2.06046 -45.5813 0.865819 -33.1943 -2.25815 3.53028 -0.913032 1.4555 -5.46787 -0.0 0.0 -0.0 9.92331 10.8668 -19.6518 -24.545 3.49067 -62.224 0.388649 10.8977 -0.0370728 81.9071 4.06017 8.7136 -0.731587 -29.012 -7.36367 0.0 0.0 0.0 -4.91148 9.54397 7.05838 -2.94082 0.109864 0.437901 32.8339 4.50111 -4.18447 -10.1696 0.0 0.0 -0.0 0.0 -0.0 32.4882 21.5444 -7.82648 -42.8303 0.656578 -6.38989 15.1592 -19.6973 2.16201 -34.3732 0.0 0.0 0.0 0.0 0.0 
2684.67518895 677.693 -1656.98851917 -3.26082161067 62.1800952062 2.21220319633 2.21687 0.158486 0.200027 2.21688 0.145437 0.209706 2.21742 0.107156 0.231616 2.21737 0.14239 0.211786 -16.6969 7.37768 0.637864 -16.8993 13.8009 3.2864 -0.0 0.0 -0.0 2.97757 12.4565 6.43532 1.30483 -31.3747 57.8907 2.2922 -48.6236 1.03565 -32.8496 -2.22478 3.50127 -0.419698 1.23099 -2.27554 -0.0 0.0 -0.0 9.59971 10.3914 -18.9533 -25.5463 2.02366 -62.7654 0.315234 8.8757 -0.0244655 81.3227 3.9919 8.68256 -2.29284 -28.8462 1.09971 0.0 0.0 0.0 -8.03284 8.99486 7.64054 -0.76373 0.0306934 0.113184 33.0812 4.83672 -4.20897 -11.8401 0.0 0.0 -0.0 0.0 -0.0 33.1743 19.8642 -7.9891 -36.8801 0.280305 -5.55655 16.7171 -14.1453 2.33186 -39.7722 0.0 0.0 0.0 0.0 0.0 
2664.76841449 676.38 -1656.15063761 -2.83019108299 60.7695845053 1.49972117249 2.29651 0.268863 0.178655 2.29649 0.25695 0.195402 2.29738 0.219798 0.236419 2.29739 0.254377 0.198739 -18.3605 7.16213 1.19352 -18.573 13.144 3.92794 -0.0 0.0 -0.0 2.5101 12.7533 5.66987 1.36117 -31.0665 57.909 2.51978 -51.2922 1.20992 -32.9987 -2.2392 3.51384 -0.27776 0.805775 -1.51161 -0.0 0.0 -0.0 9.27227 9.45309 -18.259 -26.3364 1.75199 -62.328 0.307295 8.65559 -0.0232556 81.7819 4.04552 8.70701 -2.74261 -28.6574 3.61621 0.0 0.0 0.0 -8.55568 9.79877 8.28756 -3.82347 0.138432 0.570348 34.8341 6.35621 -4.38267 -13.2351 0.0 0.0 -0.0 0.0 -0.0 33.1991 18.6311 -7.89535 -34.0094 0.130265 -5.14185 18.3699 -11.7221 2.53427 -40.1093 0.0 0.0 0.0 0.0 0.0 
2650.69946898 673.541 -1657.30005325 -2.81527648231 60.6472705669 0.973445130237 2.46324 0.0288871 0.247766 2.46327 0.0130626 0.249102 2.46332 -0.0289628 0.247757 2.46324 0.0105291 0.249221 -19.0592 7.69268 2.79458 -19.2729 13.3555 5.71486 -0.0 0.0 -0.0 2.03858 13.298 4.92196 2.24301 -31.2685 58.2177 2.79903 -54.1904 1.43225 -33.9515 -2.33206 3.59328 -0.130101 0.98877 -0.450224 -0.0 0.0 -0.0 9.0944 8.74635 -17.8863 -27.185 2.1673 -62.0055 0.291652 8.22116 -0.02096 81.4824 4.01052 8.69111 -3.88534 -28.8888 9.67773 0.0 0.0 0.0 -10.1502 10.0072 9.14302 -2.35906 0.089918 0.350846 34.2605 7.77072 -4.32898 -16.0133 0.0 0.0 -0.0 0.0 -0.0 32.8662 18.0079 -7.54705 -25.3483 -0.193951 -3.85348 19.0896 -10.6971 2.62208 -40.1559 0.0 0.0 0.0 0.0 0.0 
2634.74686941 673.16 -1661.46031017 -4.85454137359 60.2599946167 2.8843270295 2.54594 -0.00447337 0.210796 2.54596 -0.0178778 0.210084 2.54589 -0.052616 0.204173 2.54583 -0.0197105 0.20992 -16.2763 7.85437 1.85705 -16.4655 14.0044 4.54538 -0.0 0.0 -0.0 2.15043 14.6339 5.18879 2.55764 -30.229 58.0692 3.18314 -57.6053 1.75045 -37.4478 -2.68391 3.8714 -0.391009 1.14281 -2.12225 -0.0 0.0 -0.0 8.57809 7.19763 -16.8034 -27.7473 2.58519 -61.7977 0.355923 9.99947 -0.0311376 82.0622 4.07835 8.72171 -5.21206 -29.1755 16.8517 0.0 0.0 0.0 -11.2426 10.1174 9.83255 2.12334 -0.0932442 -0.31246 31.2029 6.93033 -4.01581 -20.7211 0.0 0.0 -0.0 0.0 -0.0 32.0801 18.1178 -7.12567 -16.1438 -0.321623 -2.44837 19.7221 -7.35151 2.6962 -39.577 0.0 0.0 0.0 0.0 0.0 
